<?xml version="1.0" encoding="UTF-8"?>
<svg height="16px" viewBox="0 0 16 16" width="16px" xmlns="http://www.w3.org/2000/svg">
    <path d="m 4.769531 1.890625 c -0.449219 0 -0.8125 0.101563 -1.089843 0.304687 c -0.269532 0.195313 -0.46875 0.480469 -0.59375 0.855469 c -0.125 0.371094 -0.191407 0.824219 -0.191407 1.355469 c 0 0.527344 0.066407 0.980469 0.199219 1.359375 c 0.128906 0.375 0.332031 0.664063 0.609375 0.867187 c 0.277344 0.199219 0.632813 0.300782 1.066406 0.300782 c 0.339844 0 0.632813 -0.058594 0.875 -0.171875 c 0.238281 -0.113281 0.429688 -0.28125 0.578125 -0.496094 c 0.152344 -0.21875 0.261719 -0.484375 0.328125 -0.792969 c 0.074219 -0.3125 0.109375 -0.667968 0.109375 -1.066406 c 0 -0.53125 -0.0625 -0.984375 -0.195312 -1.359375 c -0.128906 -0.375 -0.335938 -0.664063 -0.617188 -0.859375 c -0.277344 -0.195312 -0.636718 -0.296875 -1.078125 -0.296875 z m 6.339844 0 l -1.773437 0.714844 l 0.347656 0.480469 l 0.738281 -0.304688 c 0.15625 -0.0625 0.273437 -0.105469 0.347656 -0.136719 c 0.078125 -0.027343 0.164063 -0.0625 0.257813 -0.105469 c -0.003906 0.105469 -0.011719 0.230469 -0.015625 0.375 c -0.007813 0.144532 -0.015625 0.289063 -0.019531 0.445313 v 3.082031 l -1.335938 0.070313 v 0.421875 h 3.445312 v -0.421875 l -1.34375 -0.070313 v -4.550781 z m -6.339844 0.542969 c 0.289063 0 0.523438 0.078125 0.707031 0.226562 c 0.015626 0.011719 0.03125 0.027344 0.042969 0.039063 l -1.851562 2.746093 c -0.078125 -0.289062 -0.113281 -0.632812 -0.113281 -1.039062 c 0 -0.449219 0.042968 -0.820312 0.125 -1.109375 c 0.089843 -0.292969 0.222656 -0.507813 0.402343 -0.652344 c 0.175781 -0.140625 0.40625 -0.210937 0.6875 -0.210937 z m 1.097657 0.808594 c 0.007812 0.027343 0.019531 0.050781 0.027343 0.078124 c 0.085938 0.289063 0.132813 0.652344 0.132813 1.085938 c 0 0.675781 -0.101563 1.179688 -0.304688 1.503906 c -0.207031 0.320313 -0.523437 0.480469 -0.953125 0.480469 c -0.351562 0 -0.621093 -0.109375 -0.8125 -0.328125 z m -1.199219 5.746093 l -1.773438 0.710938 l 0.347657 0.480469 l 0.738281 -0.300782 c 0.15625 -0.0625 0.273437 -0.109375 0.347656 -0.136718 c 0.078125 -0.027344 0.164063 -0.0625 0.261719 -0.105469 c -0.007813 0.105469 -0.015625 0.226562 -0.019532 0.371093 c -0.007812 0.144532 -0.011718 0.292969 -0.019531 0.449219 v 3.078125 l -1.332031 0.070313 v 0.421875 h 3.441406 v -0.421875 l -1.339844 -0.070313 v -4.546875 z m 6.542969 0 c -0.449219 0 -0.8125 0.097657 -1.089844 0.300781 c -0.269532 0.195313 -0.472656 0.480469 -0.597656 0.859376 c -0.125 0.367187 -0.1875 0.820312 -0.1875 1.351562 c 0 0.527344 0.066406 0.980469 0.195312 1.359375 c 0.132812 0.375 0.335938 0.667969 0.613281 0.867187 c 0.277344 0.203126 0.632813 0.300782 1.066407 0.300782 c 0.34375 0 0.628906 -0.054688 0.871093 -0.167969 c 0.242188 -0.117187 0.433594 -0.28125 0.582031 -0.496094 c 0.152344 -0.21875 0.257813 -0.488281 0.328126 -0.796875 c 0.074218 -0.3125 0.109374 -0.667968 0.109374 -1.066406 c 0 -0.53125 -0.066406 -0.984375 -0.195312 -1.359375 c -0.132812 -0.375 -0.335938 -0.664063 -0.621094 -0.859375 c -0.277344 -0.195312 -0.632812 -0.292969 -1.074218 -0.292969 z m 0 0.542969 c 0.289062 0 0.523437 0.074219 0.707031 0.222656 c 0.015625 0.011719 0.03125 0.027344 0.042969 0.039063 l -1.851563 2.746093 c -0.078125 -0.285156 -0.113281 -0.632812 -0.113281 -1.039062 c 0 -0.449219 0.042968 -0.816406 0.125 -1.105469 c 0.089844 -0.292969 0.222656 -0.511719 0.402344 -0.652343 c 0.175781 -0.140626 0.40625 -0.210938 0.6875 -0.210938 z m 1.097656 0.808594 c 0.007812 0.023437 0.015625 0.050781 0.023437 0.078125 c 0.089844 0.285156 0.136719 0.648437 0.136719 1.082031 c 0 0.679688 -0.105469 1.179688 -0.308594 1.503906 c -0.203125 0.320313 -0.519531 0.480469 -0.949218 0.480469 c -0.351563 0 -0.621094 -0.109375 -0.8125 -0.328125 z m -8.4375 -10.339844 h 8.257812 c 2.144532 0 3.871094 1.726562 3.871094 3.871094 v 8.257812 c 0 2.144532 -1.726562 3.871094 -3.871094 3.871094 h -8.257812 c -2.144532 0 -3.871094 -1.726562 -3.871094 -3.871094 v -8.257812 c 0 -2.144532 1.726562 -3.871094 3.871094 -3.871094 z m 0 0" fill="#ffffff"/>
</svg>
